<svg xmlns="http://www.w3.org/2000/svg" xmlns:xlink="http://www.w3.org/1999/xlink" version="1.1" x="0px" y="0px" viewBox="0 0 60 75" enable-background="new 0 0 60 60" xml:space="preserve"><circle cx="13.81" cy="14.274" r="5.236"/><path d="M19.979,22.44c-0.432-0.723-2.31-1.78-6.169-1.78s-5.737,1.058-6.169,1.78L2,31.884c-0.669,1.12-0.303,2.57,0.816,3.238  c0.379,0.227,0.797,0.335,1.209,0.335c0.803,0,1.587-0.411,2.029-1.151l1.867-3.126c0,1.271,0,17.228,0,17.228  c0,1.41,1.145,2.555,2.555,2.555s2.553-1.145,2.553-2.555v-12.32h0.78h0.78v12.32c0,1.41,1.143,2.555,2.553,2.555  c1.411,0,2.555-1.145,2.555-2.555c0,0,0-15.957,0-17.228l1.867,3.126c0.443,0.74,1.227,1.151,2.03,1.151  c0.411,0,0.829-0.108,1.208-0.335c1.119-0.668,1.485-2.118,0.816-3.238L19.979,22.44z"/><circle cx="46.19" cy="14.274" r="5.236"/><path d="M58,31.884l-5.641-9.443c-0.432-0.723-2.309-1.78-6.168-1.78c-3.86,0-5.737,1.058-6.169,1.78l-5.642,9.443  c-0.669,1.12-0.303,2.57,0.816,3.238c0.38,0.227,0.797,0.335,1.208,0.335c0.805,0,1.588-0.411,2.03-1.151l1.868-3.126l-2.654,10.495  h2.654c0,3.6,0,6.732,0,6.732c0,1.41,1.143,2.555,2.554,2.555c1.41,0,2.554-1.145,2.554-2.555v-6.732h0.78h0.779v6.732  c0,1.41,1.143,2.555,2.553,2.555c1.411,0,2.555-1.145,2.555-2.555c0,0,0-3.133,0-6.732h2.654L52.077,31.18l1.868,3.126  c0.442,0.74,1.226,1.151,2.029,1.151c0.412,0,0.83-0.108,1.208-0.335C58.302,34.454,58.669,33.004,58,31.884z"/><rect x="28.114" y="9.038" width="3.771" height="41.924"/><text x="0" y="75" fill="#000000" font-size="5px" font-weight="bold" font-family="'Helvetica Neue', Helvetica, Arial-Unicode, Arial, Sans-serif">Created by Bin Bon</text><text x="0" y="80" fill="#000000" font-size="5px" font-weight="bold" font-family="'Helvetica Neue', Helvetica, Arial-Unicode, Arial, Sans-serif">from the Noun Project</text></svg>